<?xml version="1.0" encoding="UTF-8" standalone="no"?>
<!-- Created with Inkscape (http://www.inkscape.org/) -->

<svg
   xmlns:dc="http://purl.org/dc/elements/1.1/"
   xmlns:cc="http://creativecommons.org/ns#"
   xmlns:rdf="http://www.w3.org/1999/02/22-rdf-syntax-ns#"
   xmlns:svg="http://www.w3.org/2000/svg"
   xmlns="http://www.w3.org/2000/svg"
   xmlns:sodipodi="http://sodipodi.sourceforge.net/DTD/sodipodi-0.dtd"
   xmlns:inkscape="http://www.inkscape.org/namespaces/inkscape"
   width="210mm"
   height="297mm"
   viewBox="0 0 210 297"
   version="1.1"
   id="svg8"
   inkscape:version="0.92.4 (5da689c313, 2019-01-14)"
   sodipodi:docname="FLUCTRON.svg">
  <defs
     id="defs2" />
  <sodipodi:namedview
     id="base"
     pagecolor="#ffffff"
     bordercolor="#666666"
     borderopacity="1.0"
     inkscape:pageopacity="0.0"
     inkscape:pageshadow="2"
     inkscape:zoom="0.64"
     inkscape:cx="467.90908"
     inkscape:cy="548.719"
     inkscape:document-units="mm"
     inkscape:current-layer="g920"
     showgrid="false"
     inkscape:window-width="1920"
     inkscape:window-height="1001"
     inkscape:window-x="-9"
     inkscape:window-y="-9"
     inkscape:window-maximized="1" />
  <metadata
     id="metadata5">
    <rdf:RDF>
      <cc:Work
         rdf:about="">
        <dc:format>image/svg+xml</dc:format>
        <dc:type
           rdf:resource="http://purl.org/dc/dcmitype/StillImage" />
        <dc:title></dc:title>
      </cc:Work>
    </rdf:RDF>
  </metadata>
  <g
     inkscape:label="Layer 1"
     inkscape:groupmode="layer"
     id="layer1">
    <g
       id="g920"
       style="fill:#000000">
      <g
         transform="matrix(0.18572814,0,0,0.1874228,66.547771,74.417574)"
         id="g906"
         style="fill:#000000">
        <g
           id="g910"
           style="fill:#000000" />
      </g>
      <g
         id="g1144"
         inkscape:export-filename="C:\Users\Rishabh Sharma\Desktop\FLUCTRON.png"
         inkscape:export-xdpi="33.589298"
         inkscape:export-ydpi="33.589298">
        <path
           sodipodi:type="star"
           style="fill:#000000;fill-rule:nonzero;stroke:#000000;stroke-width:50.06068802;stroke-linecap:round;stroke-miterlimit:4;stroke-dasharray:none"
           id="path815"
           sodipodi:sides="6"
           sodipodi:cx="194.46877"
           sodipodi:cy="224.31046"
           sodipodi:r1="124.77795"
           sodipodi:r2="108.06087"
           sodipodi:arg1="1.0854719"
           sodipodi:arg2="1.6090707"
           inkscape:flatsided="true"
           inkscape:rounded="0"
           inkscape:randomized="0"
           d="M 252.6771,334.6795 127.99053,329.90487 69.782203,219.53583 136.26043,113.94141 260.947,118.71604 319.15533,229.08508 Z"
           inkscape:transform-center-x="-4.2991013e-06"
           transform="matrix(0.24116242,0.12474007,-0.13279738,0.23088238,89.482782,39.377559)" />
        <g
           transform="matrix(0.11121409,0,0,0.12549485,147.03137,86.41924)"
           id="g1065"
           style="fill:#000000">
          <g
             id="g993"
             transform="matrix(1.4245732,0,0,1.4116924,1141.7682,82.240129)">
            <g
               id="g936">
	
	
<g
   transform="matrix(0.69043956,0,0,0.55599864,-1221.1429,-42.5132)"
   id="g1070">
  <g
     transform="translate(18.93829,14.008002)"
     id="g1085">
    <polygon
       style="fill:#f9f9f9"
       id="polygon934"
       points="253.01,478.59 490,243.651 253.01,11.322 253.01,139.391 360.136,245 253.01,350.609 "
       transform="matrix(0.02063063,0.99978712,0.99978716,-0.02063063,-14.275676,-6.1868396)" />
    <polygon
       id="polygon932"
       points="236.99,350.609 129.864,245 236.99,139.391 236.99,11.41 0,246.348 236.99,478.678 "
       style="fill:#00ff00"
       transform="translate(0.44141172,-1.1064245)" />
    <path
       d="M 202.4707,322.47497 137.2461,258.17419 234,163.32263 v 128.06836 z"
       id="polygon1033"
       inkscape:connector-curvature="0"
       style="fill:#00ff00" />
  </g>
</g>
</g>
            <g
               id="g938">
</g>
            <g
               id="g940">
</g>
            <g
               id="g942">
</g>
            <g
               id="g944">
</g>
            <g
               id="g946">
</g>
            <g
               id="g948">
</g>
            <g
               id="g950">
</g>
            <g
               id="g952">
</g>
            <g
               id="g954">
</g>
            <g
               id="g956">
</g>
            <g
               id="g958">
</g>
            <g
               id="g960">
</g>
            <g
               id="g962">
</g>
            <g
               id="g964">
</g>
            <g
               id="g966">
</g>
          </g>
        </g>
        <g
           style="fill:#000000;fill-rule:evenodd"
           id="g834"
           transform="matrix(3.5680058,0,0,3.2411458,-9.8538645,2.0273838)"
           inkscape:export-xdpi="33.589298"
           inkscape:export-ydpi="33.589298">
          <path
             id="path817"
             d="M 23.3,14.194649 C 14.937,12.623083 8.324,14.266881 5.688,18.97848 3.721,22.49309 4.283,27.154127 7.051,32.13505 a 0.86,0.88742351 0 0 0 1.171,0.327108 0.86,0.88742351 0 0 0 0.317,-1.20834 C 6.046,26.765106 5.561,22.743839 7.173,19.861776 c 2.2,-3.912918 8.088,-5.380263 15.82,-3.927365 A 0.86,0.88742351 0 0 0 23.99,15.222409 0.86,0.88742351 0 0 0 23.3,14.193617 Z m -11.9,23.9852 c 3.382,3.834495 7.775,7.431656 12.786,10.416907 12.142,7.228374 25.057,9.168323 31.414,4.68993 a 0.86,0.88742351 0 0 0 0.225,-1.23001 0.86,0.88742351 0 0 0 -1.192,-0.232175 c -5.697,4.007852 -17.966,2.173156 -29.6,-4.751843 -4.86,-2.895478 -9.115,-6.379131 -12.375,-10.075353 a 0.86,0.88742351 0 0 0 -1.212,-0.05882 0.86,0.88742351 0 0 0 -0.057,1.250648 z m 42.178,-1.06594 C 59.054,30.437594 60.966,23.724132 58.336,19.024915 56.401,15.566027 52.31,13.739586 46.872,13.667354 a 0.86,0.88742351 0 0 0 -0.869,0.872977 0.86,0.88742351 0 0 0 0.846,0.89671 c 4.9,0.06604 8.415,1.638638 10,4.473234 2.185,3.904664 0.48,9.891677 -4.582,16.062366 a 0.86,0.88742351 0 0 0 0.1,1.247552 0.86,0.88742351 0 0 0 1.209,-0.103189 z M 39.504,14.487705 C 34.554,15.581506 29.282,17.722673 24.221,20.737849 11.697,28.198398 3.527,39.211736 4.66,47.17791 A 0.86,0.88742351 0 0 0 5.633,47.924997 0.86,0.88742351 0 0 0 6.357,46.92097 C 5.35,39.838092 13.094,29.409834 25.077,22.258852 29.977,19.33345 35.09,17.261419 39.862,16.205798 a 0.86,0.88742351 0 0 0 0.659,-1.050462 0.86,0.88742351 0 0 0 -1.018,-0.680014 z"
             inkscape:connector-curvature="0"
             style="stroke-width:1.01581883;fill:#000000" />
          <path
             id="path819"
             d="m 19.215,52.710893 c 2.863,8.249943 7.547,13.329926 12.815,13.329926 3.842,0 7.396,-2.703546 10.167,-7.460549 a 0.86,0.88742351 0 0 0 -0.293,-1.214532 0.86,0.88742351 0 0 0 -1.177,0.302344 c -2.5,4.275111 -5.55,6.600986 -8.697,6.600986 -4.375,0 -8.553,-4.540306 -11.2,-12.155638 a 0.86,0.88742351 0 0 0 -1.097,-0.534518 0.86,0.88742351 0 0 0 -0.518,1.131981 z M 45.368,51.09702 C 46.85,46.208968 47.646,40.571765 47.646,34.695163 47.646,20.034102 42.673,7.3955399 35.59,4.1512846 a 0.86,0.88742351 0 0 0 -1.132,0.4499031 0.86,0.88742351 0 0 0 0.436,1.168097 C 41.212,8.6626981 45.93,20.658394 45.93,34.696195 c 0,5.700149 -0.77,11.160899 -2.2,15.87353 a 0.86,0.88742351 0 0 0 0.562,1.10928 0.86,0.88742351 0 0 0 1.075,-0.579921 z M 61.52,50.230234 c 0,-2.339289 -1.838,-4.235899 -4.105,-4.235899 -2.267,0 -4.115,1.885259 -4.115,4.235899 0,2.350641 1.838,4.2359 4.105,4.2359 2.267,0 4.105,-1.89661 4.105,-4.2359 z m -1.715,0 a 2.39,2.4662118 0 0 1 -2.389,2.46518 2.39,2.4662118 0 0 1 -2.389,-2.46518 2.39,2.4662118 0 0 1 2.389,-2.46518 2.39,2.4662118 0 0 1 2.389,2.46518 z"
             inkscape:connector-curvature="0"
             style="stroke-width:1.01581883;fill:#000000" />
          <path
             sodipodi:nodetypes="csccccccccsssssccccc"
             id="path821"
             d="m 6.584,54.466134 c 2.267,0 4.105,-1.89661 4.105,-4.2359 0,-2.339289 -1.838,-4.235899 -4.105,-4.235899 -5.473331,6.88e-4 -5.472331,8.472487 0.001,8.471799 z m 0,-1.769688 c -1.3191796,-5.69e-4 -2.3884482,-1.103934 -2.389,-2.46518 5.518e-4,-1.361246 1.0698204,-2.46461 2.389,-2.46518 1.3191796,5.7e-4 2.3884482,1.103934 2.389,2.46518 -5.518e-4,1.361246 -1.0698204,2.464611 -2.389,2.46518 z M 32.03,8.46148 c 2.267,0 4.105,-1.8966098 4.105,-4.2358995 C 36.135,1.8862909 34.296,0 32.03,0 c -2.266,0 -4.105,1.8966098 -4.105,4.2358994 0,2.3392897 1.838,4.2255806 4.105,4.2255806 z m 0,-1.7696876 c -1.31918,-5.694e-4 -2.388448,-1.1039346 -2.389,-2.46518 5.52e-4,-1.3612453 1.06982,-2.4646105 2.389,-2.4651799 1.31918,5.694e-4 2.388448,1.1039346 2.389,2.4651799 -5.52e-4,1.3612454 -1.06982,2.4646106 -2.389,2.46518 z"
             inkscape:connector-curvature="0"
             style="stroke-width:1.01581883;fill:#000000" />
          <path
             transform="matrix(0.0741544,0,0,0.08163265,2.7617288,-0.62551453)"
             inkscape:connector-curvature="0"
             id="path928"
             d=""
             style="fill:#000000;fill-rule:nonzero;stroke:#000000;stroke-width:156.00892639;stroke-linecap:round;stroke-miterlimit:4;stroke-dasharray:none" />
        </g>
      </g>
    </g>
  </g>
</svg>
